<?xml version="1.0" encoding="UTF-8"?>
<svg id="Calque_1" xmlns="http://www.w3.org/2000/svg" version="1.1" viewBox="0 0 1024 1024">
  <!-- Generator: Adobe Illustrator 29.5.1, SVG Export Plug-In . SVG Version: 2.1.0 Build 141)  -->
  <defs>
    <style>
      .st0 {
        fill: #98bfce;
      }

      .st1 {
        fill: #1b4860;
      }

      .st2 {
        fill: #5b91a8;
      }

      .st3 {
        fill: #accdda;
      }

      .st4 {
        fill: #47768f;
      }

      .st5 {
        fill: #447990;
      }

      .st6 {
        fill: #23536d;
      }

      .st7 {
        fill: #e8ece9;
      }

      .st8 {
        fill: #5e8fa6;
      }

      .st9 {
        fill: #80b0c3;
      }

      .st10 {
        fill: #4f89a1;
      }

      .st11 {
        fill: #628fa7;
      }

      .st12 {
        fill: #bbd6df;
      }

      .st13 {
        fill: #d3d3d3;
      }

      .st14 {
        fill: #b9d6e0;
      }

      .st15 {
        fill: #6295aa;
      }

      .st16 {
        fill: #2e5f79;
      }

      .st17 {
        fill: #457d9b;
      }

      .st18 {
        fill: #9cc0ce;
      }

      .st19 {
        fill: #7eaec2;
      }

      .st20 {
        fill: #8ab5c6;
      }

      .st21 {
        fill: #669bb2;
      }

      .st22 {
        fill: #36667e;
      }

      .st23 {
        fill: #7babbf;
      }

      .st24 {
        fill: #a2c4ce;
      }
    </style>
  </defs>
  <path class="st7" d="M720.14,498.84c0,167.21-93.46,158.22-208.75,158.22s-208.75,7.94-208.75-158.22c0-110.53,93.46-200.14,208.75-200.14s208.75,89.61,208.75,200.14Z"/>
  <path class="st13" d="M511.39,529.78c-92.42,0-170.8,20.46-198.26,48.82,27.47,83.56,105.85,78.46,198.26,78.46,11.14,0,22.08.08,32.76.08.63,0,1.25,0,1.87,0,77.07-.07,139.85-5.03,163.73-78.44-27.37-28.41-105.83-48.92-198.36-48.92Z"/>
  <g>
    <path class="st22" d="M678,576c5.64,3.99,9.35,10.1,10,17,13.96,24.34,28.07,48.64,42,72.99-14.65.03-29.35-.01-44,.01-80.45-.59-162.11-.93-245-1-18.46-.5-37.09-.51-55.9-.05-9.23-.94-18.26-1.26-27.1-.95-1.73-.55-1.4-1.22,1-2,1.14-3.05,7.41-3.95,9-1,12.34-1.25,24.7-1.93,37.09-2.05-2.94-.68-4.63-2-5.09-3.95-1.2-4.61,8.87-5.92,12.68-6.36,18.42-.98,37.03-.84,55.83.4,54.45-3.84,109.82-4.78,163.28-4.96,2.85,0,13.23-4.28,11.98-7.05l-11.88-13.92-.9-4.11c-2.66-.15-3.32-2.56-1-4,2.63-5.94,5.6-11.81,8.92-17.62l3.08-1.38.04-3.92,9.8-15.67c3.89-13.33,8.02-16.1,12.39-8.3l.66-3.46c-3.05-5.98-2.68-8.86,1.11-8.65,3.85,6.73,8.13,13.24,12,20Z"/>
    <path class="st0" d="M433,596l1.09,1.08c-6.51,12.22-6.92,15.79-1.24,10.69l9.65-7.55,2.5.77c4.82.71,3.48,10.1,2.3,13.91-3.2,10.25-10.51,13.49-20.41,15.11l-3.89,2.98c-.52.65-1.07,1.27-1.7,1.79-5.02,4.08-29.51,6.63-37.3,7.21l-.39,2.19c-2.5.72-4.71,1.99-6.61,3.81l-.34,2.09-18.68,3.05c8.36-1.03,16.37-.41,24.02,1.86,9.01-.32,8.4,4.77-.54,5.42-4.52-.22-9.01-.03-13.46.58-3.2.13-5.91.83-9,1-5.39,1.48-11.17,2.13-17.34,1.95-.63,1.48-1.49,1.51-2.16.05-2.91,1.76-11.67,1.6-15,0,.15.53.24.97.1,1.05-2.18,1.38-16.33.99-19.39.62,5.08-11.88,3.33-7.85,5.08-11.88,5.2-11.98,14.11-22.6,20.71-33.79l1.44-1.69c12.6,2.78,26.93,3.88,38.95-1.58,13.69-10.08,27.14-15.07,43.87-16.01,4.89-1.03,11.06-2.56,12.58-8l2.16-.71c2.53-1.31,5.04,1.92,3,4Z"/>
    <path class="st23" d="M430,592c-1.59,12.54-22.97,10.88-33.05,13.45-12.18,3.11-19.76,11.87-29.71,15.29-6.38,2.19-13.23.55-19.69,2.29l-16.55-3.03c1.27-2.15,2.51-5.49,4-8,9.21-17.52,7.3-12.57,19-31,7.17-6,12.35-2.09,12.17,6.98.25,1.36,2.08,1.23,5.48-.4,12.06-5.06,23.63-8.67,36.42-11.38,2.56-.54,10.11-.62,11.93.8,5.37,1.65,10.45,9.42,10,15Z"/>
    <path class="st4" d="M441,665c79.78,0,159.73-1.01,239.51-.02,1.69.02,4.45-.64,5.49,1.02-110.32.16-220.68-.12-331,0-.39-.46-.67-.86-.57-1.04.55-.98,20.05-1.66,22.15-.26,21.49-.09,42.96.01,64.42.3Z"/>
    <path class="st16" d="M358,664c4.41-.35,8.67-2.88,12.31-1.97.81.2.27,1.81,2.12,2.05,17.42,2.27,44.4-.29,63.08-.1,1.69.02,4.45-.64,5.49,1.02-26.81,0-53.69-.3-80.51-.02-1.69.02-4.45-.64-5.49,1.02-.66-.03-1.34.04-2,0-21.69-1.5-7.7-3.46,5-2Z"/>
    <path class="st4" d="M359,662l-1,2c-5.51.43-11.43-.32-16.99.01l10.41,1.07c.79.06,1.4.91,1.59.92h-47.5c-1.72-1.59,2.96-.99,3.5-1,4.15-.08,8.39.25,12.54.04,1.31-.07,2.6-1.04,2.96-1.04h15c5.13,0,13.36-1.66,19.5-2Z"/>
    <path class="st20" d="M584,451l-2.38,1.65c-12.46.64-24.97,2.45-37.54,5.41-2.47-1.07-4.16-1.09-5.08-.06l-1.98,1.84c-4.23.29-8.24,1.34-12.02,3.16l-.99,1.95c-16.33-2.37-32.57,1.79-48.13,6.16-7.28.58-9.18-.45-12.46-7.12-3.6-7.31,1.74-31.96,8.02-37.86-4.54,1.12-9.01,1.08-13.4-.12-2.48,2.92-6.63,3.05-5.04-1,15.11-25.04,29.92-50.78,44.17-76.33,2.13-3.83,14.16-29.68,16.33-29.65,17.83,33.71,36.59,66.88,54.33,100.65,5.66,10.78,11.41,19.69,16.17,31.33Z"/>
    <path class="st18" d="M525,463c3.88,7.95,4.89,15.53-6.23,17.85-12.45,2.32-23.8,6.41-34.05,12.28-1.88,3.92-4.12,6.21-6.72,6.87-3.15,3.95-6.86,8.2-11.14,12.73-15.08,8.6-26.87,16.5-17.79,34.97.25,1.9-.13,3.6-.93,5.32s-22.47,20.82-25.72,23.48l-2.42-.5c-2.48.68-9.75-5.44-11.59-7.65-6.02-11.98-12.2-23.8-18.53-35.46-1.77,3.31-6.29,11.59-8.88,6.11,23.92-37.98,48.83-75.61,72-114,1.99,3.35,3.39-1.02,3.64-1.05,2.17-.21,5.12,1.11,7.86,1.14,3.44.04,7.13-2.53,9.5.42.35,1.64-3.76,4.09-4.74,6.24-.75,1.64-5.11,20.98-5.17,22.84-.13,3.86.98,12.24,4.94,13.88,6.24,2.6,13.85-1.79,19.94-3.01,6.53-1.31,13.12-2.3,19.69-3.4l16.34.93Z"/>
    <path class="st5" d="M666,556c-3,2.56.77,6.01.87,8.44.12,2.94-1.02,7.62-4.72,5.39-.48-.29-1.34-5.62-3.16-4.35-2.01,1.41-3.29,7.9-4.61,10.4-3.64,6.93-8.43,13.39-12.39,20.11-8.49,1.37-5.6-14.37,0-17,1.03-5.86,2.53-11.59,4.5-17.2l-1.01-2.33-45.32-.46-2.31-.77c.69-6.86,1.26-13.18.36-19.97l14.3-35.96c-7.65,1.01-15.34,3.49-23.05,7.45-5.53-1.53-10.75-1.97-15.67-1.32-2.43,3.46-7.59,5.49-5.79-.45-.86-.28-.85-.62,0-1-.27-1.69-.36-3.43.13-5.09,1.83-6.21,14.22-39.79,16.75-42.27.63-.62,1.36-1.14,2.12-1.64,1.9-4.52,5.45-12.7,7.79-16.71.53-.9,3.04-4.68,4.22-3.82,20.7,36.83,42.15,73.22,63.16,109.86,1.56,2.72,2.54,6.42,3.83,8.67Z"/>
    <path class="st24" d="M584,451c.99,2.41.91,5.32,3,7-6.91,16.4-11.21,32.56-19,49-2.07,2.14-4.73,3.47-8,4-1.55.64-3.59.71-6.1.22-10.45,7.24-25.45,5.44-18.86-9.72-4.92-15.06-2.33-22.69,7.76-22.89,1.62-1.09,3.48-18.79-3.11-18.45l-.68-2.16-1.5-2c15.87,1.53,30.8-8.03,46.5-5Z"/>
    <path class="st15" d="M381,539c4.71,1.75,7.17-11.04,9.99-9l19.13,37.39c3.17,2.13,7.45,5.64,9.89,8.61.87.33.87.66,0,1-3.55,2.01-8.14.65-12.24,1.26-12.38,1.83-22.3,6.46-33.48,10.52-11.99,4.35-9.14,2.17-11.42-8.63l-8.86.85c1.32-2.14,2.68-5.86,4-8,7.15-11.55,15.73-22.46,23-34Z"/>
    <path class="st6" d="M630,615c.4,1.44,1.02,2.11,1,4,4.49,10.19-2.15,16.63-12.89,16.02-37.98-3.51-78.08-1.43-116.02,2.94-14.62.84-22.58-2.72-35.68-8.69-9.05-1.18-11.53-2.94-7.42-5.27l3.82-2.28c28.86-6.86,57.55-13.64,86.06-20.36l2.12.64,1.4-1.55c4.83,2.57,10.51,3.36,14.6-.45-.06-.47-.09-.92.02-1.35.62-2.54,30.12-8.67,34.98-6.65,1.44-3.22,4.84-4.65,10.2-4.29.97-3.08,2.45-5.59,5.84-3.32,2.72,1.09,12.85,24.76,13.32,28.39.11.84-.7,1.61-1.36,2.22Z"/>
    <path class="st16" d="M631,619l14.48,17.02c.48.97.82,2.35.59,3.38-.1.47-7.21,4.75-8.07,5.11-10.02,4.21-33.82,1.41-45.46,1.45-14.47.05-28.63.99-43.08,1.08-26.82.17-53.87,3.55-80.92,4-15.97.26-32.08-2.06-48.08-1.08-6.09.37-16.03,1.11-20.46,5.04-2.35,2.73-11.23,2.62-13.56.42l-4.44-.42c-15.31-.26-30.68.2-45.99-.01l40.99-6.99c1.3-2.15,3.97-3.24,8.01-3.27-1.35-.23-1.49-1.4-1.01-2.73,12.13-3.49,26.37-5.86,39-9,11.15-5.64,23.48-8.98,36-9-1.83,2.81-.89,1.8,1.49,1.99,10.39.86,20.13,8.78,29.98,10.03s27.9-2.6,38.99-3.06c21.33-.88,41.62-.58,63-1.99,8.46-.56,16.02,2.22,24.07,2.09,4.13-.07,12.35-.35,13.25-4.77.31-1.52,1.21-7.98,1.22-9.28Z"/>
    <path class="st2" d="M572,541c1.79-3.52,5.02-3.88,9.7-1.07,13.61-4.14,17.13,5.11,16.66,16.79-.02.44.42.91.98,1.37-1.82,3.1-2.84,6.1-3.06,9,16.06.29,31.97,1.18,47.75,2.66-.24,3.11-.92,6.19-2.03,9.25-1.49,7.23-7.01,11.33,0,17-3.17,5.38-5.74,11.41-9,16.55-.83,1.3-.85,2.92-3,2.45-1.47-5.28-8.28-22.07-11.16-26.34-5.2-7.67-2.93-.55-5.82.86-1.87.91-4.3.18-6.29.71-1.58.42-2.87,1.34-4.72,1.77l-2.13-2.83c-5.9-1.76-10.35-5.71-13.36-11.86-8.43-1.88-16.57-3.83-24.41-5.85l-.1-1.46c-1.87-4.68-.11-11.15,4-14-1.82-4.42,1.79-12.72,6-15Z"/>
    <path class="st11" d="M400,655c2.74.35,12.35,4.35,7.36,5.86-13.09.64-26.29-.39-39.36.14,6.64-3.18,14.74,2.48,19-4.99l-5-1.01c5.57.1,12.77-.68,18,0Z"/>
    <path class="st1" d="M539,458c8.28,1.16,7.57,8.79,6.98,15.48-.98,11.13-4.05,5.1-8.99,8.01-5.3,3.12.09,15.09.04,20.05-.04,4.16-5.17,7.07,1.05,10.87,8.72,5.32,13.41-8.12,21.91-1.41,1.86,1.62,1.15,2.59-.1,4.27-2.14,2.87-19.84,9.97-24.13,8.53-6.57-5.82-11.48-3.45-14.74,7.09l21.06,10.72c8.72,5.45,10.9,7.2,6.99,18.25-.22,13.56,1.67,28.07,8.83,39.8,2.23-.34,3.87-.24,6.08.33.87-2.69,1.75-2.44,3,0,3.49,2.02-4.34,3.78-4.76,3.82-2.01.21-9.48-.74-11.24-1.82-1.22.81-2.1.72-3.28.04-3.76-2.17-14.83-38.53-14.24-43.8-8.11-.24-16.32.07-24.63.95-10.88,13.05-22.22,25.41-37.73,32.91-5.33,2.58-17.55,7.93-22.85,9.35-1.09.29-2.24-.09-3.27-.45-6.35,3.81-10.99,10.02-17.99,12-3.03-4.56,6.18-15.53,5.99-17,.7-2.54,3.59-3.74,8.68-3.59,7.33-3.94,14.26-8.9,20.79-14.88,12.59-4.14,16.9-12.83,21.15-25.04l5.98-17.51c5.79-8.99,12.86-22.12,12.53-33.08-.04-1.21-7.85-1.4-9.29-.75-5.45,2.47-15.93,17.22-15.55,24.1-1.76,7.1-9.92,6.22-11.16-.69-.97-5.43,7.28-21.39,11.88-24.54,4.98-8.92,5.7-10.18,15.48-14.02,6.39-2.51,27.76-6.73,31.08-9.92,3.83-3.68-2.15-7.76.45-13.06,2.25-4.59,9.41-5.65,14-5Z"/>
    <path class="st14" d="M445,601c8.83-5.3,18.69-7.46,27.67-11.83,13.43-6.53,25.36-20.67,35.32-31.68,8.93-.41,18.07-3,26.87-.35.6,7.06,2.9,13.73,5.12,20.38,1.75,5.24,5.5,16.9,7.81,21.19.95,1.76,1.56,2.28,3.21,3.29-1.05,1.52-2.71,1.73-4.34,2.15-28.38,7.39-58.86,12.88-87.66,19.85-12.01,2.91-24,6.01-36,9,.48-6.79,7.5-4.98,12.4-7.1,9.33-4.03,13.18-15.84,9.6-24.9Z"/>
    <path class="st12" d="M478,500c-2.22,3.97-9.69,18.96-9.97,22.63-.4,5.08,4.76,7.56,6.77,3.67,1.18-2.28.92-6.45,2.36-9.64,1.09-2.42,11.26-15.55,13.29-16.71,3.77-2.16,10.18-.4,14.55-.94-2.22,6.99-2.54,14.61-4.96,21.53-2.21,6.32-7.1,10.77-9.23,16.77-4.09,11.56-5.86,20.24-12.64,31.36-4.89,8.02-6.4,5.57-13.3,9.7-6.6,3.95-14.21,12.36-19.98,15.02-4.41,2.04-7.7,1.01-11.89,2.61-.03-.25-2.52-3.17-3-4-3.06-5.26-6.23-10.22-10-15-.16-.21.16-.8,0-1l26.48-24.01c3.33-7.27-7.52-14.87.11-25.9,6.55-9.47,16.9-11.95,23.45-18.55,1.98-2,2.65-4.43,4.44-6.56.29-.34,3.29-2.85,3.52-.98Z"/>
    <path class="st8" d="M384,642c2.33,2.38,8.08-.93,8,3.99l-15,2.01c-.62-4.18,3.89-5.11,7-6Z"/>
    <path class="st10" d="M568,508c-.09,5.17,4.01-1.07,5.02-1.48,6.01-2.47,11.6,1.68,16.25,1.26,3.6-.32,8.2-4.08,11.74-5.28,1.65-.56,14.42-4.01,14.99-3.5l-15.58,38.95c-1.26,2.95.77,5.69.66,8.53-.12,3.21-3.31,6.6-2.08,10.51l48.01.49,1.8,4.76-6.81,16.75c.26-1.27,1.3-7.72,1-8l-49.01-2c-1.23-4.86,4.13-10.3,4.09-14.52,0-.62-4.27-10.94-4.63-11.44-3.02-4.11-8.98-.96-12.01-1.15-2.31-.14-5.31-3.7-9.44-.9-1.4-4.88.74-11.27,5-14l-1.14-2.02c4.91-6.07,1.36-8.37-10.65-6.9l-1.21-2.08c-1.61-3.26.45-7.32,4-8Z"/>
    <path class="st3" d="M568,507c-.13.27.13.73,0,1-1.24,2.62-2.7,5.35-4,8,1.9,2.28-.1,5.84-3,5l.96,2.11c-2.2,4.37-4.37,8.77-6.49,13.19-4.12,8.74,1.86,13.9,9.53,17.09l1,2.61c-1.54,4.6-2.71,9.33-4,14l1.47,2.11c-3.05,7.43-4.25,14.7-3.59,21.79,2.67,1.95,4.04,3.98,4.12,6.1-.81,1.01-6.46,2.1-6.84,1.89-.98-.55-4.81-8.35-5.44-10.11-2.82-7.9-5.49-24-4.61-32.18.37-3.45,2.96-7.2,1.4-10.58-2.02-4.38-24.34-13.97-29.58-16.64-.73-3.49,6.92-15.09,10.33-14.23,4.01,1,4.72,5.17,12.02,3.64.92-.19,15.38-6.4,16.11-6.9,1.69-1.15,1.74-2.49,2.61-3.88.18-.28-.5-1.31.61-2.08,1.46-1.03,5.29-1.03,6.9-2.89l.49.98Z"/>
    <path class="st9" d="M602,592c-8.62,1.99-17.53,3.47-26.21,5.29-2.52.53-6.72,2.47-8.79,2.71-.81.09-2.24.13-3,0-1.58-.27-5.85-4.68-6.49-6.02-1.87-3.97,3.11-19.02,4.49-23.98,6.61,2.61,20.84,2.24,26.38,6.12,2.59,1.81,2.73,5.83,5.08,7.92,2.71,2.41,11.52,2.59,8.53,7.97Z"/>
    <path class="st19" d="M577,527c-1.77,4.58-3.26,9.4-5,14-1.86,4.93-4.33,10.02-6,15-22.49-9.23-12.65-19.61-5-35,5.05,1.25,10.38,2.36,15.99,3.34v2.66Z"/>
    <path class="st21" d="M577,527c-3.99-4.81-12.79,1.17-16-6,.9-1.81,2.3-3.57,3-5,4.8.6,16.78-2.6,15.99,5.4-.28,2.82-2.4,4.08-2.99,5.6Z"/>
  </g>
  <ellipse class="st17" cx="511.44" cy="691.06" rx="130.88" ry="2.3"/>
</svg>