<svg xmlns="http://www.w3.org/2000/svg" version="1.1" xmlns:xlink="http://www.w3.org/1999/xlink" width="1024" height="1024"><svg width="1024" height="1024" viewBox="0 0 1024 1024" fill="none" xmlns="http://www.w3.org/2000/svg">
<path d="M990.386 502.566C990.386 891.48 773.007 870.57 504.854 870.57C236.7 870.57 19.3212 889.038 19.3212 502.566C19.3212 245.484 236.7 37.0596 504.854 37.0596C773.007 37.0596 990.386 245.484 990.386 502.566Z" fill="#E8ECE9"></path>
<path d="M504.853 574.53C289.893 574.53 107.589 622.118 43.7192 688.081C107.612 882.433 289.916 870.571 504.853 870.571C530.763 870.571 556.209 870.757 581.05 870.757C582.515 870.757 583.957 870.757 585.399 870.757C764.656 870.595 910.677 859.058 966.219 688.313C902.559 622.235 720.069 574.53 504.853 574.53Z" fill="#D3D3D3"></path>
<path d="M892.372 682.032C905.49 691.313 914.119 705.524 915.631 721.573C948.101 778.185 980.919 834.705 1013.32 891.34C979.245 891.41 945.054 891.317 910.979 891.364C723.86 889.991 533.927 889.2 341.133 889.038C298.197 887.875 254.865 887.851 211.115 888.921C189.647 886.735 168.644 885.991 148.083 886.712C144.059 885.433 144.827 883.874 150.409 882.06C153.06 874.966 167.644 872.873 171.342 879.734C200.044 876.827 228.792 875.245 257.61 874.966C250.772 873.384 246.841 870.314 245.771 865.779C242.98 855.056 266.402 852.009 275.263 850.986C318.107 848.707 361.392 849.032 405.119 851.916C531.764 842.985 660.549 840.798 784.892 840.38C791.521 840.38 815.664 830.425 812.756 823.982L785.125 791.606L783.031 782.046C776.844 781.697 775.309 776.092 780.705 772.742C786.823 758.927 793.73 745.274 801.452 731.76L808.616 728.55L808.709 719.433L831.503 682.986C840.551 651.981 850.157 645.539 860.321 663.681L861.856 655.633C854.762 641.724 855.623 635.026 864.438 635.514C873.393 651.167 883.348 666.309 892.349 682.032H892.372Z" fill="#36667E"></path>
<path d="M322.526 728.552L325.061 731.064C309.919 759.487 308.966 767.79 322.177 755.928L344.622 738.368L350.436 740.159C361.647 741.81 358.531 763.65 355.786 772.512C348.343 796.352 331.341 803.888 308.314 807.656L299.267 814.588C298.057 816.099 296.778 817.541 295.312 818.751C283.636 828.241 226.675 834.172 208.556 835.521L207.649 840.614C201.834 842.289 196.694 845.243 192.275 849.476L191.484 854.337L148.036 861.431C167.481 859.036 186.111 860.478 203.904 865.757C224.861 865.013 223.442 876.852 202.648 878.364C192.135 877.852 181.692 878.294 171.342 879.713C163.899 880.015 157.596 881.643 150.409 882.039C137.872 885.481 124.428 886.993 110.078 886.574C108.612 890.017 106.612 890.086 105.054 886.691C98.2852 890.784 77.9103 890.412 70.165 886.691C70.5139 887.923 70.7233 888.947 70.3976 889.133C65.3272 892.342 32.4156 891.435 25.2983 890.575C37.1139 862.943 33.0436 872.317 37.114 862.943C49.2087 835.079 69.9324 810.378 85.2834 784.351L88.6327 780.42C117.939 786.886 151.269 789.444 179.227 776.745C211.068 753.3 242.352 741.694 281.264 739.507C292.638 737.112 306.989 733.553 310.524 720.9L315.548 719.249C321.432 716.202 327.27 723.714 322.526 728.552Z" fill="#98BFCE"></path>
<path d="M315.548 719.248C311.85 748.415 262.122 744.554 238.677 750.532C210.347 757.765 192.717 778.14 169.574 786.095C154.735 791.188 138.802 787.374 123.777 791.421L85.2834 784.374C88.2373 779.373 91.1215 771.604 94.5871 765.766C116.009 725.017 111.566 736.53 138.779 693.663C155.456 679.708 167.504 688.802 167.086 709.898C167.667 713.061 171.923 712.759 179.831 708.968C207.882 697.199 234.793 688.802 264.541 682.499C270.495 681.243 288.056 681.057 292.289 684.36C304.779 688.197 316.595 706.27 315.548 719.248Z" fill="#7BABBF"></path>
<path d="M341.133 889.038C526.694 889.038 712.65 886.689 898.21 888.991C902.141 889.038 908.561 887.503 910.979 891.364C654.386 891.736 397.699 891.085 141.105 891.364C140.198 890.294 139.547 889.364 139.78 888.945C141.059 886.665 186.414 885.084 191.298 888.34C241.282 888.131 291.219 888.363 341.133 889.038Z" fill="#47768F"></path>
<path d="M148.083 886.712C158.34 885.898 168.249 880.014 176.715 882.13C178.599 882.596 177.343 886.34 181.646 886.898C222.163 892.178 284.916 886.224 328.364 886.666C332.295 886.712 338.714 885.177 341.133 889.038C278.776 889.038 216.255 888.34 153.875 888.992C149.944 889.038 143.524 887.503 141.105 891.364C139.57 891.294 137.989 891.457 136.454 891.364C86.0047 887.875 118.544 883.316 148.083 886.712Z" fill="#2E5F79"></path>
<path d="M150.409 882.061L148.083 886.712C135.267 887.712 121.498 885.968 108.566 886.736L132.779 889.224C134.616 889.364 136.035 891.341 136.477 891.364H25.9964C21.9958 887.666 32.881 889.062 34.137 889.038C43.7895 888.852 53.6513 889.62 63.3038 889.131C66.3508 888.968 69.3512 886.712 70.1885 886.712H105.077C117.009 886.712 136.151 882.851 150.432 882.061H150.409Z" fill="#47768F"></path>
<path d="M673.738 391.295L668.202 395.133C639.221 396.622 610.124 400.831 580.888 407.716C575.143 405.227 571.212 405.181 569.072 407.577L564.467 411.856C554.628 412.531 545.301 414.973 536.509 419.206L534.207 423.742C496.225 418.229 458.452 427.905 422.261 438.069C405.328 439.418 400.909 437.023 393.28 421.509C384.907 404.506 397.327 347.173 411.934 333.45C401.374 336.055 390.978 335.962 380.767 333.171C374.999 339.963 365.346 340.265 369.044 330.845C404.189 272.604 438.635 212.736 471.779 153.309C476.734 144.401 504.714 84.276 509.761 84.3458C551.232 162.752 594.866 239.902 636.128 318.448C649.292 343.521 662.666 364.245 673.738 391.319V391.295Z" fill="#8AB5C6"></path>
<path d="M536.509 419.206C545.533 437.697 547.882 455.328 522.018 460.724C493.061 466.12 466.662 475.633 442.821 489.286C438.449 498.403 433.239 503.73 427.191 505.265C419.865 514.452 411.236 524.337 401.281 534.873C366.206 554.876 338.784 573.251 359.903 616.21C360.484 620.63 359.601 624.584 357.74 628.584C355.879 632.585 305.477 677.009 297.918 683.196L292.289 682.033C286.521 683.615 269.611 669.38 265.332 664.24C251.33 636.376 236.956 608.884 222.233 581.764C218.116 589.462 207.603 608.721 201.579 595.975C257.214 507.637 315.152 420.113 369.044 330.822C373.672 338.614 376.929 328.45 377.51 328.38C382.557 327.891 389.419 330.961 395.792 331.031C403.793 331.124 412.375 325.147 417.888 332.008C418.702 335.823 409.142 341.521 406.863 346.522C405.118 350.336 394.977 395.319 394.838 399.645C394.536 408.623 397.117 428.115 406.328 431.929C420.842 437.976 438.542 427.766 452.706 424.928C467.895 421.881 483.222 419.578 498.503 417.02L536.509 419.183V419.206Z" fill="#9CC0CE"></path>
<path d="M864.462 635.516C857.484 641.47 866.252 649.495 866.485 655.147C866.764 661.985 864.113 672.87 855.507 667.683C854.39 667.009 852.39 654.612 848.157 657.566C843.482 660.845 840.505 675.94 837.435 681.755C828.968 697.873 817.827 712.899 808.617 728.529C788.87 731.715 795.592 695.106 808.617 688.989C811.012 675.359 814.501 662.031 819.083 648.983L816.734 643.564L711.324 642.494L705.951 640.703C707.556 624.747 708.882 610.047 706.789 594.254L740.049 510.615C722.256 512.964 704.37 518.732 686.437 527.943C673.575 524.384 661.433 523.361 649.99 524.873C644.338 532.92 632.336 537.642 636.523 523.826C634.523 523.175 634.546 522.384 636.523 521.5C635.895 517.569 635.686 513.522 636.825 509.661C641.082 495.218 669.9 417.114 675.784 411.345C677.25 409.903 678.947 408.694 680.715 407.531C685.134 397.018 693.391 377.992 698.834 368.665C700.067 366.572 705.905 357.78 708.649 359.78C756.795 445.443 806.686 530.083 855.553 615.304C859.182 621.63 861.461 630.236 864.462 635.469V635.516Z" fill="#447990"></path>
<path d="M673.737 391.297C676.04 396.902 675.854 403.67 680.715 407.578C664.643 445.723 654.642 483.309 636.523 521.547C631.708 526.525 625.521 529.618 617.916 530.851C614.31 532.339 609.566 532.502 603.728 531.363C579.422 548.202 544.533 544.015 559.861 508.755C548.418 473.727 554.442 455.98 577.91 455.515C581.678 452.98 586.004 411.811 570.677 412.602L569.095 407.578L565.606 402.926C602.518 406.485 637.244 384.249 673.761 391.297H673.737Z" fill="#A2C4CE"></path>
<path d="M201.579 595.975C212.534 600.045 218.255 570.297 224.814 575.042L269.309 662.007C276.682 666.961 286.637 675.125 292.312 682.033C294.336 682.801 294.336 683.568 292.312 684.359C284.055 689.034 273.379 685.871 263.843 687.29C235.048 691.546 211.975 702.315 185.972 711.758C158.084 721.876 164.713 716.806 159.41 691.686L138.802 693.663C141.873 688.685 145.036 680.033 148.106 675.056C164.736 648.191 184.693 622.816 201.602 595.975H201.579Z" fill="#6295AA"></path>
<path d="M780.729 772.743C781.659 776.092 783.101 777.65 783.055 782.046C793.498 805.747 778.054 820.726 753.074 819.307C664.736 811.143 571.467 815.981 483.222 826.145C449.218 828.099 430.703 819.819 400.234 805.933C379.185 803.189 373.416 799.095 382.976 793.676L391.861 788.373C458.986 772.417 525.717 756.647 592.028 741.017L596.959 742.506L600.215 738.901C611.449 744.878 624.66 746.716 634.173 737.854C634.034 736.761 633.964 735.714 634.22 734.714C635.662 728.806 704.276 714.548 715.58 719.247C718.929 711.757 726.837 708.431 739.304 709.269C741.56 702.105 745.003 696.267 752.888 701.547C759.214 704.082 782.775 759.136 783.869 767.579C784.124 769.533 782.24 771.324 780.705 772.743H780.729Z" fill="#23536D"></path>
<path d="M783.055 782.047L816.734 821.634C817.85 823.89 818.641 827.1 818.106 829.495C817.873 830.589 801.336 840.543 799.336 841.381C776.03 851.173 720.674 844.66 693.6 844.753C659.944 844.87 627.01 847.056 593.4 847.265C531.02 847.661 468.104 855.522 405.188 856.569C368.044 857.174 330.573 851.778 293.359 854.057C279.194 854.917 256.075 856.639 245.771 865.779C240.305 872.129 219.651 871.873 214.232 866.756L203.905 865.779C168.295 865.175 132.546 866.245 96.9363 865.756L192.275 849.498C195.299 844.497 201.509 841.962 210.906 841.892C207.766 841.357 207.44 838.636 208.556 835.543C236.77 827.425 269.89 821.913 299.267 814.61C325.2 801.491 353.879 793.723 382.999 793.676C378.743 800.212 380.929 797.863 386.465 798.305C410.631 800.305 433.285 818.726 456.195 821.634C479.105 824.541 521.088 815.586 546.882 814.517C596.494 812.47 643.686 813.167 693.414 809.888C713.091 808.585 730.675 815.051 749.399 814.749C759.005 814.586 778.124 813.935 780.217 803.654C780.938 800.119 783.031 785.094 783.055 782.07V782.047Z" fill="#2E5F79"></path>
<path d="M645.827 600.627C649.99 592.44 657.503 591.602 668.388 598.138C700.043 588.509 708.231 610.024 707.137 637.19C707.091 638.213 708.114 639.307 709.417 640.377C705.184 647.587 702.811 654.565 702.3 661.31C739.654 661.984 776.659 664.054 813.362 667.497C812.803 674.73 811.222 681.894 808.64 689.011C805.174 705.828 792.335 715.364 808.64 728.552C801.267 741.065 795.289 755.09 787.707 767.045C785.776 770.069 785.73 773.837 780.729 772.744C777.31 760.463 761.471 721.411 754.772 711.479C742.677 693.64 747.957 710.2 741.235 713.48C736.886 715.596 731.234 713.898 726.605 715.131C722.93 716.108 719.93 718.248 715.627 719.248L710.673 712.666C696.95 708.572 686.6 699.385 679.599 685.08C659.991 680.708 641.058 676.172 622.823 671.474L622.591 668.078C618.241 657.193 622.335 642.144 631.894 635.515C627.661 625.235 636.058 605.93 645.85 600.627H645.827Z" fill="#5B91A8"></path>
<path d="M245.771 865.779C252.144 866.593 274.496 875.897 262.889 879.409C232.443 880.897 201.741 878.502 171.342 879.734C186.786 872.338 205.626 885.503 215.534 868.128L203.904 865.779C216.86 866.012 233.606 864.197 245.771 865.779Z" fill="#628FA7"></path>
<path d="M569.072 407.577C588.33 410.275 586.679 428.021 585.306 443.582C583.027 469.469 575.886 455.444 564.396 462.212C552.069 469.469 564.606 497.31 564.49 508.847C564.397 518.522 552.465 525.291 566.932 534.129C587.214 546.503 598.122 515.243 617.892 530.85C622.218 534.618 620.567 536.874 617.66 540.781C612.682 547.457 571.514 563.97 561.536 560.621C546.254 547.084 534.834 552.597 527.252 577.112L576.235 602.045C596.517 614.722 601.588 618.792 592.493 644.493C591.982 676.032 596.378 709.781 613.031 737.064C618.218 736.273 622.032 736.506 627.173 737.832C629.196 731.575 631.243 732.157 634.15 737.832C642.268 742.53 624.056 746.624 623.079 746.717C618.404 747.205 601.029 744.995 596.936 742.484C594.098 744.368 592.051 744.158 589.307 742.577C580.562 737.529 554.814 652.959 556.186 640.702C537.323 640.144 518.227 640.865 498.899 642.912C473.593 673.265 447.217 702.013 411.143 719.457C398.746 725.458 370.323 737.902 357.996 741.204C355.461 741.879 352.786 740.995 350.39 740.158C335.621 749.019 324.828 763.463 308.547 768.068C301.5 757.462 322.921 731.947 322.479 728.528C324.107 722.62 330.829 719.829 342.668 720.178C359.717 711.014 375.835 699.478 391.024 685.569C420.307 675.939 430.331 655.727 440.216 627.328L454.125 586.601C467.592 565.692 484.036 535.153 483.269 509.661C483.176 506.846 465.011 506.404 461.661 507.916C448.985 513.661 424.61 547.968 425.493 563.97C421.4 580.484 402.42 578.438 399.536 562.366C397.28 549.736 416.469 512.615 427.168 505.288C438.751 484.541 440.426 481.61 463.173 472.679C478.036 466.841 527.74 457.025 535.462 449.606C544.37 441.046 530.462 431.557 536.509 419.229C541.742 408.554 558.396 406.088 569.072 407.6V407.577Z" fill="#1B4860"></path>
<path d="M350.436 740.18C370.974 727.853 393.908 722.829 414.794 712.665C446.031 697.477 473.779 664.588 496.945 638.98C517.715 638.027 538.974 632.003 559.442 638.166C560.838 654.587 566.187 670.101 571.351 685.568C575.421 697.756 584.143 724.876 589.516 734.854C591.726 738.948 593.145 740.157 596.982 742.506C594.54 746.042 590.679 746.53 586.888 747.507C520.879 764.695 449.985 777.465 382.999 793.676C355.065 800.445 327.177 807.655 299.267 814.609C300.383 798.816 316.711 803.026 328.108 798.095C349.808 788.722 358.763 761.253 350.436 740.18Z" fill="#B9D6E0"></path>
<path d="M427.191 505.265C422.028 514.499 404.653 549.364 404.002 557.9C403.072 569.716 415.073 575.484 419.749 566.436C422.493 561.133 421.888 551.434 425.238 544.015C427.773 538.386 451.427 507.847 456.149 505.149C464.918 500.125 479.827 504.219 489.991 502.963C484.827 519.221 484.083 536.944 478.454 553.039C473.314 567.739 461.94 578.089 456.986 592.045C447.473 618.932 443.357 639.121 427.587 664.985C416.213 683.639 412.701 677.94 396.652 687.546C381.301 696.734 363.601 716.295 350.181 722.481C339.924 727.226 332.271 724.831 322.526 728.552C322.456 727.971 316.665 721.179 315.548 719.248C308.431 707.014 301.058 695.478 292.289 684.36C291.917 683.871 292.661 682.499 292.289 682.034L353.879 626.189C361.624 609.28 336.388 591.603 354.135 565.948C369.37 543.922 393.443 538.154 408.677 522.803C413.283 518.151 414.841 512.499 419.004 507.545C419.679 506.754 426.657 500.916 427.191 505.265Z" fill="#BBD6DF"></path>
<path d="M208.557 835.542C213.976 841.078 227.35 833.379 227.164 844.822L192.275 849.497C190.833 839.775 201.323 837.612 208.557 835.542Z" fill="#5E8FA6"></path>
<path d="M636.523 523.873C636.314 535.898 645.85 521.384 648.199 520.43C662.178 514.685 675.18 524.338 685.995 523.361C694.368 522.617 705.067 513.871 713.301 511.08C717.139 509.778 746.841 501.753 748.166 502.94L711.929 593.534C708.998 600.395 713.72 606.768 713.464 613.373C713.185 620.84 705.765 628.724 708.626 637.819L820.293 638.958L824.479 650.03L808.64 688.989C809.245 686.035 811.664 671.033 810.966 670.381L696.973 665.73C694.112 654.426 706.579 641.773 706.486 631.957C706.486 630.515 696.555 606.512 695.717 605.349C688.693 595.79 674.831 603.116 667.783 602.674C662.41 602.349 655.433 594.068 645.827 600.581C642.57 589.231 647.548 574.368 657.456 568.018L654.805 563.32C666.225 549.202 657.968 543.852 630.034 547.271L627.219 542.433C623.475 534.851 628.266 525.408 636.523 523.826V523.873Z" fill="#4F89A1"></path>
<path d="M636.523 521.545C636.221 522.173 636.825 523.243 636.523 523.871C633.639 529.965 630.243 536.315 627.219 542.478C631.639 547.782 626.987 556.062 620.242 554.108L622.475 559.016C617.358 569.18 612.31 579.414 607.379 589.694C597.797 610.023 611.706 622.024 629.545 629.444L631.871 635.515C628.289 646.214 625.568 657.215 622.568 668.077L625.987 672.985C618.893 690.266 616.102 707.176 617.637 723.666C623.847 728.202 627.033 732.923 627.219 737.854C625.335 740.204 612.194 742.739 611.31 742.25C609.031 740.971 600.122 722.829 598.657 718.736C592.098 700.361 585.888 662.914 587.935 643.888C588.795 635.863 594.82 627.141 591.191 619.28C586.493 609.092 534.579 586.787 522.391 580.577C520.693 572.459 538.486 545.479 546.417 547.479C555.744 549.805 557.396 559.504 574.375 555.945C576.515 555.503 610.147 541.06 611.845 539.897C615.776 537.222 615.892 534.105 617.916 530.872C618.334 530.221 616.753 527.825 619.334 526.034C622.73 523.639 631.639 523.639 635.383 519.312L636.523 521.592V521.545Z" fill="#ACCDDA"></path>
<path d="M715.604 719.247C695.554 723.876 674.831 727.318 654.642 731.551C648.781 732.784 639.012 737.296 634.197 737.854C632.313 738.064 628.987 738.157 627.219 737.854C623.545 737.226 613.613 726.969 612.124 723.852C607.775 714.618 619.358 679.614 622.568 668.077C637.942 674.148 671.039 673.287 683.925 682.312C689.949 686.522 690.275 695.872 695.741 700.733C702.044 706.338 722.535 706.757 715.58 719.27L715.604 719.247Z" fill="#80B0C3"></path>
<path d="M657.456 568.063C653.339 578.715 649.873 589.926 645.826 600.625C641.5 612.092 635.755 623.931 631.871 635.514C579.561 614.046 602.448 589.903 620.241 554.107C631.987 557.015 644.384 559.597 657.432 561.876V568.063H657.456Z" fill="#7EAEC2"></path>
<path d="M657.456 568.064C648.175 556.876 627.707 570.785 620.241 554.108C622.335 549.898 625.591 545.805 627.219 542.479C638.383 543.874 666.248 536.431 664.41 555.039C663.759 561.598 658.828 564.528 657.456 568.064Z" fill="#669BB2"></path>
<path d="M504.97 955C673.093 955 809.384 952.605 809.384 949.65C809.384 946.696 673.093 944.301 504.97 944.301C336.846 944.301 200.555 946.696 200.555 949.65C200.555 952.605 336.846 955 504.97 955Z" fill="#457D9B"></path>
</svg><style>@media (prefers-color-scheme: light) { :root { filter: none; } }
@media (prefers-color-scheme: dark) { :root { filter: none; } }
</style></svg>